<?xml version="1.0" encoding="iso-8859-1"?>
<!-- Generator: Adobe Illustrator 19.0.0, SVG Export Plug-In . SVG Version: 6.00 Build 0)  -->
<svg version="1.1" id="Capa_1" xmlns="http://www.w3.org/2000/svg" xmlns:xlink="http://www.w3.org/1999/xlink" x="0px" y="0px"
	 viewBox="0 0 490.667 490.667" style="enable-background:new 0 0 490.667 490.667;" xml:space="preserve">
<g>
	<g>
		<path d="M245.333,0C110.059,0,0,110.059,0,245.333s110.059,245.333,245.333,245.333s245.333-110.059,245.333-245.333
			S380.608,0,245.333,0z M408.448,267.968L290.197,386.219c-9.152,9.131-21.291,14.165-34.219,14.165
			c-12.928,0-25.067-5.035-34.219-14.165c-9.152-9.131-14.144-21.312-14.144-34.219s5.013-25.067,14.165-34.219l19.115-19.115
			H117.333C87.915,298.667,64,274.731,64,245.333S87.915,192,117.333,192h123.584l-19.115-19.115
			c-9.152-9.152-14.187-21.312-14.187-34.219c0-12.907,5.013-25.067,14.165-34.219c18.283-18.261,50.133-18.261,68.416,0
			l118.251,118.251C420.928,235.179,420.928,255.488,408.448,267.968z"/>
	</g>
</g>
<g>
</g>
<g>
</g>
<g>
</g>
<g>
</g>
<g>
</g>
<g>
</g>
<g>
</g>
<g>
</g>
<g>
</g>
<g>
</g>
<g>
</g>
<g>
</g>
<g>
</g>
<g>
</g>
<g>
</g>
</svg>
